<?xml version="1.0" encoding="utf-8" standalone="no"?>
<!DOCTYPE svg PUBLIC "-//W3C//DTD SVG 1.1//EN"
  "http://www.w3.org/Graphics/SVG/1.1/DTD/svg11.dtd">
<!-- Created with matplotlib (http://matplotlib.org/) -->
<svg height="441pt" version="1.1" viewBox="0 0 675 441" width="675pt" xmlns="http://www.w3.org/2000/svg" xmlns:xlink="http://www.w3.org/1999/xlink">
 <defs>
  <style type="text/css">
*{stroke-linecap:butt;stroke-linejoin:round;}
  </style>
 </defs>
 <g id="figure_1">
  <g id="patch_1">
   <path d="
M0 441
L675 441
L675 0
L0 0
z
" style="fill:#ffffff;"/>
  </g>
  <g id="axes_1">
   <g id="patch_2">
    <path d="
M67.5 396.9
L546.75 396.9
L546.75 44.1
L67.5 44.1
z
" style="fill:#ffffff;"/>
   </g>
   <g id="patch_3">
    <path clip-path="url(#p2ca853bb75)" d="
M67.5 379.26
L67.7927 379.26
L67.7927 238.14
L67.5 238.14
z
" style="fill:#ccf900;"/>
   </g>
   <g id="patch_4">
    <path clip-path="url(#p2ca853bb75)" d="
M67.9138 379.26
L68.1779 379.26
L68.1779 238.14
L67.9138 238.14
z
" style="fill:#00a4bb;"/>
   </g>
   <g id="patch_5">
    <path clip-path="url(#p2ca853bb75)" d="
M68.4062 202.86
L73.8715 202.86
L73.8715 61.74
L68.4062 61.74
z
"/>
   </g>
   <g id="patch_6">
    <path clip-path="url(#p2ca853bb75)" d="
M74.2416 379.26
L74.4455 379.26
L74.4455 238.14
L74.2416 238.14
z
" style="fill:#00a4bb;"/>
   </g>
   <g id="patch_7">
    <path clip-path="url(#p2ca853bb75)" d="
M74.4486 202.86
L84.86 202.86
L84.86 61.74
L74.4486 61.74
z
"/>
   </g>
   <g id="patch_8">
    <path clip-path="url(#p2ca853bb75)" d="
M85.5618 379.26
L85.8387 379.26
L85.8387 238.14
L85.5618 238.14
z
" style="fill:#00a4bb;"/>
   </g>
   <g id="patch_9">
    <path clip-path="url(#p2ca853bb75)" d="
M85.9207 202.86
L94.6799 202.86
L94.6799 61.74
L85.9207 61.74
z
"/>
   </g>
   <g id="patch_10">
    <path clip-path="url(#p2ca853bb75)" d="
M95.3081 379.26
L95.5673 379.26
L95.5673 238.14
L95.3081 238.14
z
" style="fill:#00a4bb;"/>
   </g>
   <g id="patch_11">
    <path clip-path="url(#p2ca853bb75)" d="
M95.6241 202.86
L106.374 202.86
L106.374 61.74
L95.6241 61.74
z
"/>
   </g>
   <g id="patch_12">
    <path clip-path="url(#p2ca853bb75)" d="
M106.894 379.26
L107.159 379.26
L107.159 238.14
L106.894 238.14
z
" style="fill:#00a4bb;"/>
   </g>
   <g id="patch_13">
    <path clip-path="url(#p2ca853bb75)" d="
M107.197 202.86
L115.667 202.86
L115.667 61.74
L107.197 61.74
z
"/>
   </g>
   <g id="patch_14">
    <path clip-path="url(#p2ca853bb75)" d="
M116.056 379.26
L116.243 379.26
L116.243 238.14
L116.056 238.14
z
" style="fill:#00a4bb;"/>
   </g>
   <g id="patch_15">
    <path clip-path="url(#p2ca853bb75)" d="
M116.269 202.86
L121.395 202.86
L121.395 61.74
L116.269 61.74
z
"/>
   </g>
   <g id="patch_16">
    <path clip-path="url(#p2ca853bb75)" d="
M121.871 379.26
L122.315 379.26
L122.315 238.14
L121.871 238.14
z
" style="fill:#00a4bb;"/>
   </g>
   <g id="patch_17">
    <path clip-path="url(#p2ca853bb75)" d="
M122.182 202.86
L127.812 202.86
L127.812 61.74
L122.182 61.74
z
"/>
   </g>
   <g id="patch_18">
    <path clip-path="url(#p2ca853bb75)" d="
M128.192 379.26
L128.426 379.26
L128.426 238.14
L128.192 238.14
z
" style="fill:#00a4bb;"/>
   </g>
   <g id="patch_19">
    <path clip-path="url(#p2ca853bb75)" d="
M128.381 202.86
L136.272 202.86
L136.272 61.74
L128.381 61.74
z
"/>
   </g>
   <g id="patch_20">
    <path clip-path="url(#p2ca853bb75)" d="
M136.633 379.26
L136.88 379.26
L136.88 238.14
L136.633 238.14
z
" style="fill:#00a4bb;"/>
   </g>
   <g id="patch_21">
    <path clip-path="url(#p2ca853bb75)" d="
M136.827 202.86
L141.855 202.86
L141.855 61.74
L136.827 61.74
z
"/>
   </g>
   <g id="patch_22">
    <path clip-path="url(#p2ca853bb75)" d="
M142.774 379.26
L142.961 379.26
L142.961 238.14
L142.774 238.14
z
" style="fill:#00a4bb;"/>
   </g>
   <g id="patch_23">
    <path clip-path="url(#p2ca853bb75)" d="
M142.983 202.86
L147.962 202.86
L147.962 61.74
L142.983 61.74
z
"/>
   </g>
   <g id="patch_24">
    <path clip-path="url(#p2ca853bb75)" d="
M148.294 379.26
L148.45 379.26
L148.45 238.14
L148.294 238.14
z
" style="fill:#00a4bb;"/>
   </g>
   <g id="patch_25">
    <path clip-path="url(#p2ca853bb75)" d="
M148.527 202.86
L155.683 202.86
L155.683 61.74
L148.527 61.74
z
"/>
   </g>
   <g id="patch_26">
    <path clip-path="url(#p2ca853bb75)" d="
M156.008 379.26
L156.178 379.26
L156.178 238.14
L156.008 238.14
z
" style="fill:#00a4bb;"/>
   </g>
   <g id="patch_27">
    <path clip-path="url(#p2ca853bb75)" d="
M156.2 202.86
L164.042 202.86
L164.042 61.74
L156.2 61.74
z
"/>
   </g>
   <g id="patch_28">
    <path clip-path="url(#p2ca853bb75)" d="
M164.354 379.26
L164.514 379.26
L164.514 238.14
L164.354 238.14
z
" style="fill:#00a4bb;"/>
   </g>
   <g id="patch_29">
    <path clip-path="url(#p2ca853bb75)" d="
M164.536 202.86
L172.352 202.86
L172.352 61.74
L164.536 61.74
z
"/>
   </g>
   <g id="patch_30">
    <path clip-path="url(#p2ca853bb75)" d="
M172.684 379.26
L172.872 379.26
L172.872 238.14
L172.684 238.14
z
" style="fill:#00a4bb;"/>
   </g>
   <g id="patch_31">
    <path clip-path="url(#p2ca853bb75)" d="
M172.86 202.86
L180.709 202.86
L180.709 61.74
L172.86 61.74
z
"/>
   </g>
   <g id="patch_32">
    <path clip-path="url(#p2ca853bb75)" d="
M181.071 379.26
L181.232 379.26
L181.232 238.14
L181.071 238.14
z
" style="fill:#00a4bb;"/>
   </g>
   <g id="patch_33">
    <path clip-path="url(#p2ca853bb75)" d="
M181.265 202.86
L189.087 202.86
L189.087 61.74
L181.265 61.74
z
"/>
   </g>
   <g id="patch_34">
    <path clip-path="url(#p2ca853bb75)" d="
M189.355 379.26
L189.51 379.26
L189.51 238.14
L189.355 238.14
z
" style="fill:#00a4bb;"/>
   </g>
   <g id="patch_35">
    <path clip-path="url(#p2ca853bb75)" d="
M189.485 202.86
L197.382 202.86
L197.382 61.74
L189.485 61.74
z
"/>
   </g>
   <g id="patch_36">
    <path clip-path="url(#p2ca853bb75)" d="
M197.756 379.26
L197.921 379.26
L197.921 238.14
L197.756 238.14
z
" style="fill:#00a4bb;"/>
   </g>
   <g id="patch_37">
    <path clip-path="url(#p2ca853bb75)" d="
M197.92 202.86
L205.756 202.86
L205.756 61.74
L197.92 61.74
z
"/>
   </g>
   <g id="patch_38">
    <path clip-path="url(#p2ca853bb75)" d="
M206.047 379.26
L206.207 379.26
L206.207 238.14
L206.047 238.14
z
" style="fill:#00a4bb;"/>
   </g>
   <g id="patch_39">
    <path clip-path="url(#p2ca853bb75)" d="
M206.238 202.86
L214.226 202.86
L214.226 61.74
L206.238 61.74
z
"/>
   </g>
   <g id="patch_40">
    <path clip-path="url(#p2ca853bb75)" d="
M214.538 379.26
L214.727 379.26
L214.727 238.14
L214.538 238.14
z
" style="fill:#00a4bb;"/>
   </g>
   <g id="patch_41">
    <path clip-path="url(#p2ca853bb75)" d="
M214.704 202.86
L222.929 202.86
L222.929 61.74
L214.704 61.74
z
"/>
   </g>
   <g id="patch_42">
    <path clip-path="url(#p2ca853bb75)" d="
M223.282 379.26
L223.469 379.26
L223.469 238.14
L223.282 238.14
z
" style="fill:#00a4bb;"/>
   </g>
   <g id="patch_43">
    <path clip-path="url(#p2ca853bb75)" d="
M223.463 202.86
L229.575 202.86
L229.575 61.74
L223.463 61.74
z
"/>
   </g>
   <g id="patch_44">
    <path clip-path="url(#p2ca853bb75)" d="
M229.942 379.26
L230.14 379.26
L230.14 238.14
L229.942 238.14
z
" style="fill:#00a4bb;"/>
   </g>
   <g id="patch_45">
    <path clip-path="url(#p2ca853bb75)" d="
M230.116 202.86
L236.7 202.86
L236.7 61.74
L230.116 61.74
z
"/>
   </g>
   <g id="patch_46">
    <path clip-path="url(#p2ca853bb75)" d="
M237.062 379.26
L237.223 379.26
L237.223 238.14
L237.062 238.14
z
" style="fill:#00a4bb;"/>
   </g>
   <g id="patch_47">
    <path clip-path="url(#p2ca853bb75)" d="
M237.238 202.86
L244.059 202.86
L244.059 61.74
L237.238 61.74
z
"/>
   </g>
   <g id="patch_48">
    <path clip-path="url(#p2ca853bb75)" d="
M244.334 379.26
L244.516 379.26
L244.516 238.14
L244.334 238.14
z
" style="fill:#00a4bb;"/>
   </g>
   <g id="patch_49">
    <path clip-path="url(#p2ca853bb75)" d="
M244.507 202.86
L251.256 202.86
L251.256 61.74
L244.507 61.74
z
"/>
   </g>
   <g id="patch_50">
    <path clip-path="url(#p2ca853bb75)" d="
M251.872 379.26
L252.07 379.26
L252.07 238.14
L251.872 238.14
z
" style="fill:#00a4bb;"/>
   </g>
   <g id="patch_51">
    <path clip-path="url(#p2ca853bb75)" d="
M252.086 202.86
L257.369 202.86
L257.369 61.74
L252.086 61.74
z
"/>
   </g>
   <g id="patch_52">
    <path clip-path="url(#p2ca853bb75)" d="
M257.7 379.26
L257.873 379.26
L257.873 238.14
L257.7 238.14
z
" style="fill:#00a4bb;"/>
   </g>
   <g id="patch_53">
    <path clip-path="url(#p2ca853bb75)" d="
M257.873 202.86
L264.634 202.86
L264.634 61.74
L257.873 61.74
z
"/>
   </g>
   <g id="patch_54">
    <path clip-path="url(#p2ca853bb75)" d="
M264.906 379.26
L265.124 379.26
L265.124 238.14
L264.906 238.14
z
" style="fill:#00a4bb;"/>
   </g>
   <g id="patch_55">
    <path clip-path="url(#p2ca853bb75)" d="
M265.182 202.86
L271.961 202.86
L271.961 61.74
L265.182 61.74
z
"/>
   </g>
   <g id="patch_56">
    <path clip-path="url(#p2ca853bb75)" d="
M272.225 379.26
L272.384 379.26
L272.384 238.14
L272.225 238.14
z
" style="fill:#00a4bb;"/>
   </g>
   <g id="patch_57">
    <path clip-path="url(#p2ca853bb75)" d="
M272.458 202.86
L280.336 202.86
L280.336 61.74
L272.458 61.74
z
"/>
   </g>
   <g id="patch_58">
    <path clip-path="url(#p2ca853bb75)" d="
M280.612 379.26
L280.769 379.26
L280.769 238.14
L280.612 238.14
z
" style="fill:#00a4bb;"/>
   </g>
   <g id="patch_59">
    <path clip-path="url(#p2ca853bb75)" d="
M280.796 202.86
L292.297 202.86
L292.297 61.74
L280.796 61.74
z
"/>
   </g>
   <g id="patch_60">
    <path clip-path="url(#p2ca853bb75)" d="
M292.626 379.26
L292.785 379.26
L292.785 238.14
L292.626 238.14
z
" style="fill:#00a4bb;"/>
   </g>
   <g id="patch_61">
    <path clip-path="url(#p2ca853bb75)" d="
M292.845 202.86
L299.587 202.86
L299.587 61.74
L292.845 61.74
z
"/>
   </g>
   <g id="patch_62">
    <path clip-path="url(#p2ca853bb75)" d="
M299.857 379.26
L300.028 379.26
L300.028 238.14
L299.857 238.14
z
" style="fill:#00a4bb;"/>
   </g>
   <g id="patch_63">
    <path clip-path="url(#p2ca853bb75)" d="
M300.748 202.86
L306.655 202.86
L306.655 61.74
L300.748 61.74
z
"/>
   </g>
   <g id="patch_64">
    <path clip-path="url(#p2ca853bb75)" d="
M307.009 379.26
L307.172 379.26
L307.172 238.14
L307.009 238.14
z
" style="fill:#00a4bb;"/>
   </g>
   <g id="patch_65">
    <path clip-path="url(#p2ca853bb75)" d="
M307.198 202.86
L313.809 202.86
L313.809 61.74
L307.198 61.74
z
"/>
   </g>
   <g id="patch_66">
    <path clip-path="url(#p2ca853bb75)" d="
M314.131 379.26
L314.297 379.26
L314.297 238.14
L314.131 238.14
z
" style="fill:#00a4bb;"/>
   </g>
   <g id="patch_67">
    <path clip-path="url(#p2ca853bb75)" d="
M314.269 202.86
L322.162 202.86
L322.162 61.74
L314.269 61.74
z
"/>
   </g>
   <g id="patch_68">
    <path clip-path="url(#p2ca853bb75)" d="
M322.466 379.26
L322.635 379.26
L322.635 238.14
L322.466 238.14
z
" style="fill:#00a4bb;"/>
   </g>
   <g id="patch_69">
    <path clip-path="url(#p2ca853bb75)" d="
M322.658 202.86
L329.432 202.86
L329.432 61.74
L322.658 61.74
z
"/>
   </g>
   <g id="patch_70">
    <path clip-path="url(#p2ca853bb75)" d="
M329.701 379.26
L329.862 379.26
L329.862 238.14
L329.701 238.14
z
" style="fill:#00a4bb;"/>
   </g>
   <g id="patch_71">
    <path clip-path="url(#p2ca853bb75)" d="
M329.9 202.86
L335.093 202.86
L335.093 61.74
L329.9 61.74
z
"/>
   </g>
   <g id="patch_72">
    <path clip-path="url(#p2ca853bb75)" d="
M335.379 379.26
L335.58 379.26
L335.58 238.14
L335.379 238.14
z
" style="fill:#00a4bb;"/>
   </g>
   <g id="patch_73">
    <path clip-path="url(#p2ca853bb75)" d="
M335.563 202.86
L340.668 202.86
L340.668 61.74
L335.563 61.74
z
"/>
   </g>
   <g id="patch_74">
    <path clip-path="url(#p2ca853bb75)" d="
M340.933 379.26
L341.061 379.26
L341.061 238.14
L340.933 238.14
z
" style="fill:#00a4bb;"/>
   </g>
   <g id="patch_75">
    <path clip-path="url(#p2ca853bb75)" d="
M341.083 202.86
L346.384 202.86
L346.384 61.74
L341.083 61.74
z
"/>
   </g>
   <g id="patch_76">
    <path clip-path="url(#p2ca853bb75)" d="
M346.678 379.26
L346.833 379.26
L346.833 238.14
L346.678 238.14
z
" style="fill:#00a4bb;"/>
   </g>
   <g id="patch_77">
    <path clip-path="url(#p2ca853bb75)" d="
M346.852 202.86
L353.635 202.86
L353.635 61.74
L346.852 61.74
z
"/>
   </g>
   <g id="patch_78">
    <path clip-path="url(#p2ca853bb75)" d="
M353.97 379.26
L354.131 379.26
L354.131 238.14
L353.97 238.14
z
" style="fill:#00a4bb;"/>
   </g>
   <g id="patch_79">
    <path clip-path="url(#p2ca853bb75)" d="
M354.144 202.86
L362.01 202.86
L362.01 61.74
L354.144 61.74
z
"/>
   </g>
   <g id="patch_80">
    <path clip-path="url(#p2ca853bb75)" d="
M362.265 379.26
L362.447 379.26
L362.447 238.14
L362.265 238.14
z
" style="fill:#00a4bb;"/>
   </g>
   <g id="patch_81">
    <path clip-path="url(#p2ca853bb75)" d="
M362.391 202.86
L370.308 202.86
L370.308 61.74
L362.391 61.74
z
"/>
   </g>
   <g id="patch_82">
    <path clip-path="url(#p2ca853bb75)" d="
M370.65 379.26
L370.81 379.26
L370.81 238.14
L370.65 238.14
z
" style="fill:#00a4bb;"/>
   </g>
   <g id="patch_83">
    <path clip-path="url(#p2ca853bb75)" d="
M370.851 202.86
L377.445 202.86
L377.445 61.74
L370.851 61.74
z
"/>
   </g>
   <g id="patch_84">
    <path clip-path="url(#p2ca853bb75)" d="
M377.796 379.26
L377.95 379.26
L377.95 238.14
L377.796 238.14
z
" style="fill:#00a4bb;"/>
   </g>
   <g id="patch_85">
    <path clip-path="url(#p2ca853bb75)" d="
M378.062 202.86
L383.419 202.86
L383.419 61.74
L378.062 61.74
z
"/>
   </g>
   <g id="patch_86">
    <path clip-path="url(#p2ca853bb75)" d="
M383.778 379.26
L383.983 379.26
L383.983 238.14
L383.778 238.14
z
" style="fill:#00a4bb;"/>
   </g>
   <g id="patch_87">
    <path clip-path="url(#p2ca853bb75)" d="
M383.975 202.86
L389.164 202.86
L389.164 61.74
L383.975 61.74
z
"/>
   </g>
   <g id="patch_88">
    <path clip-path="url(#p2ca853bb75)" d="
M389.538 379.26
L389.744 379.26
L389.744 238.14
L389.538 238.14
z
" style="fill:#00a4bb;"/>
   </g>
   <g id="patch_89">
    <path clip-path="url(#p2ca853bb75)" d="
M389.793 202.86
L395.008 202.86
L395.008 61.74
L389.793 61.74
z
"/>
   </g>
   <g id="patch_90">
    <path clip-path="url(#p2ca853bb75)" d="
M395.359 379.26
L395.539 379.26
L395.539 238.14
L395.359 238.14
z
" style="fill:#00a4bb;"/>
   </g>
   <g id="patch_91">
    <path clip-path="url(#p2ca853bb75)" d="
M395.546 202.86
L400.664 202.86
L400.664 61.74
L395.546 61.74
z
"/>
   </g>
   <g id="patch_92">
    <path clip-path="url(#p2ca853bb75)" d="
M401.005 379.26
L401.207 379.26
L401.207 238.14
L401.005 238.14
z
" style="fill:#00a4bb;"/>
   </g>
   <g id="patch_93">
    <path clip-path="url(#p2ca853bb75)" d="
M401.256 202.86
L406.204 202.86
L406.204 61.74
L401.256 61.74
z
"/>
   </g>
   <g id="patch_94">
    <path clip-path="url(#p2ca853bb75)" d="
M406.536 379.26
L406.729 379.26
L406.729 238.14
L406.536 238.14
z
" style="fill:#00a4bb;"/>
   </g>
   <g id="patch_95">
    <path clip-path="url(#p2ca853bb75)" d="
M406.702 202.86
L413.837 202.86
L413.837 61.74
L406.702 61.74
z
"/>
   </g>
   <g id="patch_96">
    <path clip-path="url(#p2ca853bb75)" d="
M414.244 379.26
L414.441 379.26
L414.441 238.14
L414.244 238.14
z
" style="fill:#00a4bb;"/>
   </g>
   <g id="patch_97">
    <path clip-path="url(#p2ca853bb75)" d="
M414.455 202.86
L420.26 202.86
L420.26 61.74
L414.455 61.74
z
"/>
   </g>
   <g id="patch_98">
    <path clip-path="url(#p2ca853bb75)" d="
M420.785 379.26
L421.133 379.26
L421.133 238.14
L420.785 238.14
z
" style="fill:#00a4bb;"/>
   </g>
   <g id="patch_99">
    <path clip-path="url(#p2ca853bb75)" d="
M421.143 202.86
L428.096 202.86
L428.096 61.74
L421.143 61.74
z
"/>
   </g>
   <g id="patch_100">
    <path clip-path="url(#p2ca853bb75)" d="
M428.41 379.26
L428.575 379.26
L428.575 238.14
L428.41 238.14
z
" style="fill:#00a4bb;"/>
   </g>
   <g id="patch_101">
    <path clip-path="url(#p2ca853bb75)" d="
M428.634 202.86
L435.509 202.86
L435.509 61.74
L428.634 61.74
z
"/>
   </g>
   <g id="patch_102">
    <path clip-path="url(#p2ca853bb75)" d="
M435.856 379.26
L436.034 379.26
L436.034 238.14
L435.856 238.14
z
" style="fill:#00a4bb;"/>
   </g>
   <g id="patch_103">
    <path clip-path="url(#p2ca853bb75)" d="
M436.074 202.86
L444.295 202.86
L444.295 61.74
L436.074 61.74
z
"/>
   </g>
   <g id="patch_104">
    <path clip-path="url(#p2ca853bb75)" d="
M444.688 379.26
L444.99 379.26
L444.99 238.14
L444.688 238.14
z
" style="fill:#00a4bb;"/>
   </g>
   <g id="patch_105">
    <path clip-path="url(#p2ca853bb75)" d="
M444.846 202.86
L453.183 202.86
L453.183 61.74
L444.846 61.74
z
"/>
   </g>
   <g id="patch_106">
    <path clip-path="url(#p2ca853bb75)" d="
M453.451 379.26
L453.617 379.26
L453.617 238.14
L453.451 238.14
z
" style="fill:#00a4bb;"/>
   </g>
   <g id="patch_107">
    <path clip-path="url(#p2ca853bb75)" d="
M453.662 202.86
L461.626 202.86
L461.626 61.74
L453.662 61.74
z
"/>
   </g>
   <g id="patch_108">
    <path clip-path="url(#p2ca853bb75)" d="
M461.898 379.26
L462.051 379.26
L462.051 238.14
L461.898 238.14
z
" style="fill:#00a4bb;"/>
   </g>
   <g id="patch_109">
    <path clip-path="url(#p2ca853bb75)" d="
M462.076 202.86
L468.813 202.86
L468.813 61.74
L462.076 61.74
z
"/>
   </g>
   <g id="patch_110">
    <path clip-path="url(#p2ca853bb75)" d="
M469.098 379.26
L469.295 379.26
L469.295 238.14
L469.098 238.14
z
" style="fill:#00a4bb;"/>
   </g>
   <g id="patch_111">
    <path clip-path="url(#p2ca853bb75)" d="
M469.302 202.86
L475.939 202.86
L475.939 61.74
L469.302 61.74
z
"/>
   </g>
   <g id="patch_112">
    <path clip-path="url(#p2ca853bb75)" d="
M476.239 379.26
L476.595 379.26
L476.595 238.14
L476.239 238.14
z
" style="fill:#00a4bb;"/>
   </g>
   <g id="patch_113">
    <path clip-path="url(#p2ca853bb75)" d="
M476.664 202.86
L482.553 202.86
L482.553 61.74
L476.664 61.74
z
"/>
   </g>
   <g id="patch_114">
    <path clip-path="url(#p2ca853bb75)" d="
M482.905 379.26
L483.074 379.26
L483.074 238.14
L482.905 238.14
z
" style="fill:#00a4bb;"/>
   </g>
   <g id="patch_115">
    <path clip-path="url(#p2ca853bb75)" d="
M483.1 202.86
L491.337 202.86
L491.337 61.74
L483.1 61.74
z
"/>
   </g>
   <g id="patch_116">
    <path clip-path="url(#p2ca853bb75)" d="
M491.853 379.26
L492.057 379.26
L492.057 238.14
L491.853 238.14
z
" style="fill:#00a4bb;"/>
   </g>
   <g id="patch_117">
    <path clip-path="url(#p2ca853bb75)" d="
M492.03 202.86
L497.888 202.86
L497.888 61.74
L492.03 61.74
z
"/>
   </g>
   <g id="patch_118">
    <path clip-path="url(#p2ca853bb75)" d="
M498.198 379.26
L498.4 379.26
L498.4 238.14
L498.198 238.14
z
" style="fill:#00a4bb;"/>
   </g>
   <g id="patch_119">
    <path clip-path="url(#p2ca853bb75)" d="
M498.371 202.86
L504.401 202.86
L504.401 61.74
L498.371 61.74
z
"/>
   </g>
   <g id="patch_120">
    <path clip-path="url(#p2ca853bb75)" d="
M504.831 379.26
L505.088 379.26
L505.088 238.14
L504.831 238.14
z
" style="fill:#00a4bb;"/>
   </g>
   <g id="patch_121">
    <path clip-path="url(#p2ca853bb75)" d="
M504.893 202.86
L511.151 202.86
L511.151 61.74
L504.893 61.74
z
"/>
   </g>
   <g id="patch_122">
    <path clip-path="url(#p2ca853bb75)" d="
M511.511 379.26
L511.701 379.26
L511.701 238.14
L511.511 238.14
z
" style="fill:#00a4bb;"/>
   </g>
   <g id="patch_123">
    <path clip-path="url(#p2ca853bb75)" d="
M511.658 202.86
L518.114 202.86
L518.114 61.74
L511.658 61.74
z
"/>
   </g>
   <g id="patch_124">
    <path clip-path="url(#p2ca853bb75)" d="
M518.558 379.26
L518.765 379.26
L518.765 238.14
L518.558 238.14
z
" style="fill:#00a4bb;"/>
   </g>
   <g id="patch_125">
    <path clip-path="url(#p2ca853bb75)" d="
M518.733 202.86
L525.238 202.86
L525.238 61.74
L518.733 61.74
z
"/>
   </g>
   <g id="patch_126">
    <path clip-path="url(#p2ca853bb75)" d="
M525.655 379.26
L525.89 379.26
L525.89 238.14
L525.655 238.14
z
" style="fill:#00a4bb;"/>
   </g>
   <g id="patch_127">
    <path clip-path="url(#p2ca853bb75)" d="
M525.781 202.86
L532.645 202.86
L532.645 61.74
L525.781 61.74
z
"/>
   </g>
   <g id="patch_128">
    <path clip-path="url(#p2ca853bb75)" d="
M532.958 379.26
L533.159 379.26
L533.159 238.14
L532.958 238.14
z
" style="fill:#00a4bb;"/>
   </g>
   <g id="patch_129">
    <path clip-path="url(#p2ca853bb75)" d="
M533.171 202.86
L540.696 202.86
L540.696 61.74
L533.171 61.74
z
"/>
   </g>
   <g id="patch_130">
    <path clip-path="url(#p2ca853bb75)" d="
M541.04 379.26
L541.252 379.26
L541.252 238.14
L541.04 238.14
z
" style="fill:#00a4bb;"/>
   </g>
   <g id="patch_131">
    <path clip-path="url(#p2ca853bb75)" d="
M541.225 202.86
L546.338 202.86
L546.338 61.74
L541.225 61.74
z
"/>
   </g>
   <g id="patch_132">
    <path clip-path="url(#p2ca853bb75)" d="
M546.602 379.26
L546.75 379.26
L546.75 238.14
L546.602 238.14
z
" style="fill:#00a4bb;"/>
   </g>
   <g id="matplotlib.axis_1">
    <g id="xtick_1">
     <g id="line2d_1">
      <path clip-path="url(#p2ca853bb75)" d="
M67.5 396.9
L67.5 44.1" style="fill:none;stroke:#000000;stroke-dasharray:1.000000,3.000000;stroke-dashoffset:0.0;stroke-width:0.5;"/>
     </g>
     <g id="line2d_2">
      <defs>
       <path d="
M0 0
L0 -4" id="m93b0483c22" style="stroke:#000000;stroke-width:0.5;"/>
      </defs>
      <g>
       <use style="stroke:#000000;stroke-width:0.5;" x="67.5" xlink:href="#m93b0483c22" y="396.9"/>
      </g>
     </g>
     <g id="line2d_3">
      <defs>
       <path d="
M0 0
L0 4" id="m741efc42ff" style="stroke:#000000;stroke-width:0.5;"/>
      </defs>
      <g>
       <use style="stroke:#000000;stroke-width:0.5;" x="67.5" xlink:href="#m741efc42ff" y="44.1"/>
      </g>
     </g>
     <g id="text_1">
      <!-- 0.0 -->
      <defs>
       <path d="
M4.15625 35.2969
Q4.15625 48 6.76562 55.7344
Q9.375 63.4844 14.5156 67.6719
Q19.6719 71.875 27.4844 71.875
Q33.25 71.875 37.5938 69.5469
Q41.9375 67.2344 44.7656 62.8594
Q47.6094 58.5 49.2188 52.2188
Q50.8281 45.9531 50.8281 35.2969
Q50.8281 22.7031 48.2344 14.9688
Q45.6562 7.23438 40.5 3
Q35.3594 -1.21875 27.4844 -1.21875
Q17.1406 -1.21875 11.2344 6.20312
Q4.15625 15.1406 4.15625 35.2969
M13.1875 35.2969
Q13.1875 17.6719 17.3125 11.8281
Q21.4375 6 27.4844 6
Q33.5469 6 37.6719 11.8594
Q41.7969 17.7188 41.7969 35.2969
Q41.7969 52.9844 37.6719 58.7812
Q33.5469 64.5938 27.3906 64.5938
Q21.3438 64.5938 17.7188 59.4688
Q13.1875 52.9375 13.1875 35.2969" id="ArialMT-30"/>
       <path d="
M9.07812 0
L9.07812 10.0156
L19.0938 10.0156
L19.0938 0
z
" id="ArialMT-2e"/>
      </defs>
      <g transform="translate(59.69625 409.489375)scale(0.12 -0.12)">
       <use xlink:href="#ArialMT-30"/>
       <use x="55.615234375" xlink:href="#ArialMT-2e"/>
       <use x="83.3984375" xlink:href="#ArialMT-30"/>
      </g>
     </g>
    </g>
    <g id="xtick_2">
     <g id="line2d_4">
      <path clip-path="url(#p2ca853bb75)" d="
M137.174 396.9
L137.174 44.1" style="fill:none;stroke:#000000;stroke-dasharray:1.000000,3.000000;stroke-dashoffset:0.0;stroke-width:0.5;"/>
     </g>
     <g id="line2d_5">
      <g>
       <use style="stroke:#000000;stroke-width:0.5;" x="137.173736175" xlink:href="#m93b0483c22" y="396.9"/>
      </g>
     </g>
     <g id="line2d_6">
      <g>
       <use style="stroke:#000000;stroke-width:0.5;" x="137.173736175" xlink:href="#m741efc42ff" y="44.1"/>
      </g>
     </g>
     <g id="text_2">
      <!-- 0.5 -->
      <defs>
       <path d="
M4.15625 18.75
L13.375 19.5312
Q14.4062 12.7969 18.1406 9.39062
Q21.875 6 27.1562 6
Q33.5 6 37.8906 10.7812
Q42.2812 15.5781 42.2812 23.4844
Q42.2812 31 38.0625 35.3438
Q33.8438 39.7031 27 39.7031
Q22.75 39.7031 19.3281 37.7656
Q15.9219 35.8438 13.9688 32.7656
L5.71875 33.8438
L12.6406 70.6094
L48.25 70.6094
L48.25 62.2031
L19.6719 62.2031
L15.8281 42.9688
Q22.2656 47.4688 29.3438 47.4688
Q38.7188 47.4688 45.1562 40.9688
Q51.6094 34.4688 51.6094 24.2656
Q51.6094 14.5469 45.9531 7.46875
Q39.0625 -1.21875 27.1562 -1.21875
Q17.3906 -1.21875 11.2031 4.25
Q5.03125 9.71875 4.15625 18.75" id="ArialMT-35"/>
      </defs>
      <g transform="translate(129.323111175 409.489375)scale(0.12 -0.12)">
       <use xlink:href="#ArialMT-30"/>
       <use x="55.615234375" xlink:href="#ArialMT-2e"/>
       <use x="83.3984375" xlink:href="#ArialMT-35"/>
      </g>
     </g>
    </g>
    <g id="xtick_3">
     <g id="line2d_7">
      <path clip-path="url(#p2ca853bb75)" d="
M206.847 396.9
L206.847 44.1" style="fill:none;stroke:#000000;stroke-dasharray:1.000000,3.000000;stroke-dashoffset:0.0;stroke-width:0.5;"/>
     </g>
     <g id="line2d_8">
      <g>
       <use style="stroke:#000000;stroke-width:0.5;" x="206.84747235" xlink:href="#m93b0483c22" y="396.9"/>
      </g>
     </g>
     <g id="line2d_9">
      <g>
       <use style="stroke:#000000;stroke-width:0.5;" x="206.84747235" xlink:href="#m741efc42ff" y="44.1"/>
      </g>
     </g>
     <g id="text_3">
      <!-- 1.0 -->
      <defs>
       <path d="
M37.25 0
L28.4688 0
L28.4688 56
Q25.2969 52.9844 20.1406 49.9531
Q14.9844 46.9219 10.8906 45.4062
L10.8906 53.9062
Q18.2656 57.375 23.7812 62.2969
Q29.2969 67.2344 31.5938 71.875
L37.25 71.875
z
" id="ArialMT-31"/>
      </defs>
      <g transform="translate(199.44778485 409.489375)scale(0.12 -0.12)">
       <use xlink:href="#ArialMT-31"/>
       <use x="55.615234375" xlink:href="#ArialMT-2e"/>
       <use x="83.3984375" xlink:href="#ArialMT-30"/>
      </g>
     </g>
    </g>
    <g id="xtick_4">
     <g id="line2d_10">
      <path clip-path="url(#p2ca853bb75)" d="
M276.521 396.9
L276.521 44.1" style="fill:none;stroke:#000000;stroke-dasharray:1.000000,3.000000;stroke-dashoffset:0.0;stroke-width:0.5;"/>
     </g>
     <g id="line2d_11">
      <g>
       <use style="stroke:#000000;stroke-width:0.5;" x="276.521208525" xlink:href="#m93b0483c22" y="396.9"/>
      </g>
     </g>
     <g id="line2d_12">
      <g>
       <use style="stroke:#000000;stroke-width:0.5;" x="276.521208525" xlink:href="#m741efc42ff" y="44.1"/>
      </g>
     </g>
     <g id="text_4">
      <!-- 1.5 -->
      <g transform="translate(269.074646025 409.489375)scale(0.12 -0.12)">
       <use xlink:href="#ArialMT-31"/>
       <use x="55.615234375" xlink:href="#ArialMT-2e"/>
       <use x="83.3984375" xlink:href="#ArialMT-35"/>
      </g>
     </g>
    </g>
    <g id="xtick_5">
     <g id="line2d_13">
      <path clip-path="url(#p2ca853bb75)" d="
M346.195 396.9
L346.195 44.1" style="fill:none;stroke:#000000;stroke-dasharray:1.000000,3.000000;stroke-dashoffset:0.0;stroke-width:0.5;"/>
     </g>
     <g id="line2d_14">
      <g>
       <use style="stroke:#000000;stroke-width:0.5;" x="346.1949447" xlink:href="#m93b0483c22" y="396.9"/>
      </g>
     </g>
     <g id="line2d_15">
      <g>
       <use style="stroke:#000000;stroke-width:0.5;" x="346.1949447" xlink:href="#m741efc42ff" y="44.1"/>
      </g>
     </g>
     <g id="text_5">
      <!-- 2.0 -->
      <defs>
       <path d="
M50.3438 8.45312
L50.3438 0
L3.03125 0
Q2.9375 3.17188 4.04688 6.10938
Q5.85938 10.9375 9.82812 15.625
Q13.8125 20.3125 21.3438 26.4688
Q33.0156 36.0312 37.1094 41.625
Q41.2188 47.2188 41.2188 52.2031
Q41.2188 57.4219 37.4688 61
Q33.7344 64.5938 27.7344 64.5938
Q21.3906 64.5938 17.5781 60.7812
Q13.7656 56.9844 13.7188 50.25
L4.6875 51.1719
Q5.60938 61.2812 11.6562 66.5781
Q17.7188 71.875 27.9375 71.875
Q38.2344 71.875 44.2344 66.1562
Q50.25 60.4531 50.25 52
Q50.25 47.7031 48.4844 43.5469
Q46.7344 39.4062 42.6562 34.8125
Q38.5781 30.2188 29.1094 22.2188
Q21.1875 15.5781 18.9375 13.2031
Q16.7031 10.8438 15.2344 8.45312
z
" id="ArialMT-32"/>
      </defs>
      <g transform="translate(338.3180697 409.489375)scale(0.12 -0.12)">
       <use xlink:href="#ArialMT-32"/>
       <use x="55.615234375" xlink:href="#ArialMT-2e"/>
       <use x="83.3984375" xlink:href="#ArialMT-30"/>
      </g>
     </g>
    </g>
    <g id="xtick_6">
     <g id="line2d_16">
      <path clip-path="url(#p2ca853bb75)" d="
M415.869 396.9
L415.869 44.1" style="fill:none;stroke:#000000;stroke-dasharray:1.000000,3.000000;stroke-dashoffset:0.0;stroke-width:0.5;"/>
     </g>
     <g id="line2d_17">
      <g>
       <use style="stroke:#000000;stroke-width:0.5;" x="415.868680876" xlink:href="#m93b0483c22" y="396.9"/>
      </g>
     </g>
     <g id="line2d_18">
      <g>
       <use style="stroke:#000000;stroke-width:0.5;" x="415.868680876" xlink:href="#m741efc42ff" y="44.1"/>
      </g>
     </g>
     <g id="text_6">
      <!-- 2.5 -->
      <g transform="translate(407.944930876 409.489375)scale(0.12 -0.12)">
       <use xlink:href="#ArialMT-32"/>
       <use x="55.615234375" xlink:href="#ArialMT-2e"/>
       <use x="83.3984375" xlink:href="#ArialMT-35"/>
      </g>
     </g>
    </g>
    <g id="xtick_7">
     <g id="line2d_19">
      <path clip-path="url(#p2ca853bb75)" d="
M485.542 396.9
L485.542 44.1" style="fill:none;stroke:#000000;stroke-dasharray:1.000000,3.000000;stroke-dashoffset:0.0;stroke-width:0.5;"/>
     </g>
     <g id="line2d_20">
      <g>
       <use style="stroke:#000000;stroke-width:0.5;" x="485.542417051" xlink:href="#m93b0483c22" y="396.9"/>
      </g>
     </g>
     <g id="line2d_21">
      <g>
       <use style="stroke:#000000;stroke-width:0.5;" x="485.542417051" xlink:href="#m741efc42ff" y="44.1"/>
      </g>
     </g>
     <g id="text_7">
      <!-- 3.0 -->
      <defs>
       <path d="
M4.20312 18.8906
L12.9844 20.0625
Q14.5 12.5938 18.1406 9.29688
Q21.7812 6 27 6
Q33.2031 6 37.4688 10.2969
Q41.75 14.5938 41.75 20.9531
Q41.75 27 37.7969 30.9219
Q33.8438 34.8594 27.7344 34.8594
Q25.25 34.8594 21.5312 33.8906
L22.5156 41.6094
Q23.3906 41.5 23.9219 41.5
Q29.5469 41.5 34.0312 44.4219
Q38.5312 47.3594 38.5312 53.4688
Q38.5312 58.2969 35.25 61.4688
Q31.9844 64.6562 26.8125 64.6562
Q21.6875 64.6562 18.2656 61.4219
Q14.8438 58.2031 13.875 51.7656
L5.07812 53.3281
Q6.6875 62.1562 12.3906 67.0156
Q18.1094 71.875 26.6094 71.875
Q32.4688 71.875 37.3906 69.3594
Q42.3281 66.8438 44.9375 62.5
Q47.5625 58.1562 47.5625 53.2656
Q47.5625 48.6406 45.0625 44.8281
Q42.5781 41.0156 37.7031 38.7656
Q44.0469 37.3125 47.5625 32.6875
Q51.0781 28.0781 51.0781 21.1406
Q51.0781 11.7656 44.2344 5.25
Q37.4062 -1.26562 26.9531 -1.26562
Q17.5312 -1.26562 11.2969 4.34375
Q5.07812 9.96875 4.20312 18.8906" id="ArialMT-33"/>
      </defs>
      <g transform="translate(477.741479551 409.489375)scale(0.12 -0.12)">
       <use xlink:href="#ArialMT-33"/>
       <use x="55.615234375" xlink:href="#ArialMT-2e"/>
       <use x="83.3984375" xlink:href="#ArialMT-30"/>
      </g>
     </g>
    </g>
    <g id="text_8">
     <!-- Time -->
     <defs>
      <path d="
M6.64062 61.4688
L6.64062 71.5781
L15.4375 71.5781
L15.4375 61.4688
z

M6.64062 0
L6.64062 51.8594
L15.4375 51.8594
L15.4375 0
z
" id="ArialMT-69"/>
      <path d="
M42.0938 16.7031
L51.1719 15.5781
Q49.0312 7.625 43.2188 3.21875
Q37.4062 -1.17188 28.375 -1.17188
Q17 -1.17188 10.3281 5.82812
Q3.65625 12.8438 3.65625 25.4844
Q3.65625 38.5781 10.3906 45.7969
Q17.1406 53.0312 27.875 53.0312
Q38.2812 53.0312 44.875 45.9531
Q51.4688 38.875 51.4688 26.0312
Q51.4688 25.25 51.4219 23.6875
L12.75 23.6875
Q13.2344 15.1406 17.5781 10.5938
Q21.9219 6.0625 28.4219 6.0625
Q33.25 6.0625 36.6719 8.59375
Q40.0938 11.1406 42.0938 16.7031
M13.2344 30.9062
L42.1875 30.9062
Q41.6094 37.4531 38.875 40.7188
Q34.6719 45.7969 27.9844 45.7969
Q21.9219 45.7969 17.7969 41.75
Q13.6719 37.7031 13.2344 30.9062" id="ArialMT-65"/>
      <path d="
M25.9219 0
L25.9219 63.1406
L2.34375 63.1406
L2.34375 71.5781
L59.0781 71.5781
L59.0781 63.1406
L35.4062 63.1406
L35.4062 0
z
" id="ArialMT-54"/>
      <path d="
M6.59375 0
L6.59375 51.8594
L14.4531 51.8594
L14.4531 44.5781
Q16.8906 48.3906 20.9375 50.7031
Q25 53.0312 30.1719 53.0312
Q35.9375 53.0312 39.625 50.6406
Q43.3125 48.25 44.8281 43.9531
Q50.9844 53.0312 60.8438 53.0312
Q68.5625 53.0312 72.7031 48.75
Q76.8594 44.4844 76.8594 35.5938
L76.8594 0
L68.1094 0
L68.1094 32.6719
Q68.1094 37.9375 67.25 40.25
Q66.4062 42.5781 64.1562 43.9844
Q61.9219 45.4062 58.8906 45.4062
Q53.4219 45.4062 49.7969 41.7656
Q46.1875 38.1406 46.1875 30.125
L46.1875 0
L37.4062 0
L37.4062 33.6875
Q37.4062 39.5469 35.25 42.4688
Q33.1094 45.4062 28.2188 45.4062
Q24.5156 45.4062 21.3594 43.4531
Q18.2188 41.5 16.7969 37.7344
Q15.375 33.9844 15.375 26.9062
L15.375 0
z
" id="ArialMT-6d"/>
     </defs>
     <g transform="translate(294.406875 425.46375)scale(0.12 -0.12)">
      <use xlink:href="#ArialMT-54"/>
      <use x="57.333984375" xlink:href="#ArialMT-69"/>
      <use x="79.55078125" xlink:href="#ArialMT-6d"/>
      <use x="162.8515625" xlink:href="#ArialMT-65"/>
     </g>
    </g>
    <g id="text_9">
     <!-- 1e7 -->
     <defs>
      <path d="
M4.73438 62.2031
L4.73438 70.6562
L51.0781 70.6562
L51.0781 63.8125
Q44.2344 56.5469 37.5156 44.4844
Q30.8125 32.4219 27.1562 19.6719
Q24.5156 10.6875 23.7812 0
L14.75 0
Q14.8906 8.45312 18.0625 20.4062
Q21.2344 32.375 27.1719 43.4844
Q33.1094 54.5938 39.7969 62.2031
z
" id="ArialMT-37"/>
     </defs>
     <g transform="translate(528.58125 423.46375)scale(0.12 -0.12)">
      <use xlink:href="#ArialMT-31"/>
      <use x="55.615234375" xlink:href="#ArialMT-65"/>
      <use x="111.23046875" xlink:href="#ArialMT-37"/>
     </g>
    </g>
   </g>
   <g id="matplotlib.axis_2">
    <g id="ytick_1">
     <g id="line2d_22">
      <defs>
       <path d="
M0 0
L4 0" id="m728421d6d4" style="stroke:#000000;stroke-width:0.5;"/>
      </defs>
      <g>
       <use style="stroke:#000000;stroke-width:0.5;" x="67.5" xlink:href="#m728421d6d4" y="308.7"/>
      </g>
     </g>
     <g id="line2d_23">
      <defs>
       <path d="
M0 0
L-4 0" id="mcb0005524f" style="stroke:#000000;stroke-width:0.5;"/>
      </defs>
      <g>
       <use style="stroke:#000000;stroke-width:0.5;" x="546.75" xlink:href="#mcb0005524f" y="308.7"/>
      </g>
     </g>
     <g id="text_10">
      <!-- Comms -->
      <defs>
       <path d="
M58.7969 25.0938
L68.2656 22.7031
Q65.2812 11.0312 57.5469 4.90625
Q49.8125 -1.21875 38.625 -1.21875
Q27.0469 -1.21875 19.7969 3.48438
Q12.5469 8.20312 8.76562 17.1406
Q4.98438 26.0781 4.98438 36.3281
Q4.98438 47.5156 9.25 55.8281
Q13.5312 64.1562 21.4062 68.4688
Q29.2969 72.7969 38.7656 72.7969
Q49.5156 72.7969 56.8281 67.3281
Q64.1562 61.8594 67.0469 51.9531
L57.7188 49.75
Q55.2188 57.5625 50.4844 61.125
Q45.75 64.7031 38.5781 64.7031
Q30.3281 64.7031 24.7812 60.7344
Q19.2344 56.7812 16.9844 50.1094
Q14.75 43.4531 14.75 36.375
Q14.75 27.25 17.4062 20.4375
Q20.0625 13.625 25.6719 10.25
Q31.2969 6.89062 37.8438 6.89062
Q45.7969 6.89062 51.3125 11.4688
Q56.8438 16.0625 58.7969 25.0938" id="ArialMT-43"/>
       <path d="
M3.32812 25.9219
Q3.32812 40.3281 11.3281 47.2656
Q18.0156 53.0312 27.6406 53.0312
Q38.3281 53.0312 45.1094 46.0156
Q51.9062 39.0156 51.9062 26.6562
Q51.9062 16.6562 48.9062 10.9062
Q45.9062 5.17188 40.1562 2
Q34.4219 -1.17188 27.6406 -1.17188
Q16.75 -1.17188 10.0312 5.8125
Q3.32812 12.7969 3.32812 25.9219
M12.3594 25.9219
Q12.3594 15.9688 16.7031 11.0156
Q21.0469 6.0625 27.6406 6.0625
Q34.1875 6.0625 38.5312 11.0312
Q42.875 16.0156 42.875 26.2188
Q42.875 35.8438 38.5 40.7969
Q34.125 45.75 27.6406 45.75
Q21.0469 45.75 16.7031 40.8125
Q12.3594 35.8906 12.3594 25.9219" id="ArialMT-6f"/>
       <path d="
M3.07812 15.4844
L11.7656 16.8438
Q12.5 11.625 15.8438 8.84375
Q19.1875 6.0625 25.2031 6.0625
Q31.25 6.0625 34.1719 8.51562
Q37.1094 10.9844 37.1094 14.3125
Q37.1094 17.2812 34.5156 19
Q32.7188 20.1719 25.5312 21.9688
Q15.875 24.4219 12.1406 26.2031
Q8.40625 27.9844 6.46875 31.125
Q4.54688 34.2812 4.54688 38.0938
Q4.54688 41.5469 6.125 44.5
Q7.71875 47.4688 10.4531 49.4219
Q12.5 50.9219 16.0312 51.9688
Q19.5781 53.0312 23.6406 53.0312
Q29.7344 53.0312 34.3438 51.2656
Q38.9688 49.5156 41.1562 46.5
Q43.3594 43.5 44.1875 38.4844
L35.5938 37.3125
Q35.0156 41.3125 32.2031 43.5469
Q29.3906 45.7969 24.2656 45.7969
Q18.2188 45.7969 15.625 43.7969
Q13.0312 41.7969 13.0312 39.1094
Q13.0312 37.4062 14.1094 36.0312
Q15.1875 34.625 17.4844 33.6875
Q18.7969 33.2031 25.25 31.4531
Q34.5781 28.9531 38.25 27.3594
Q41.9375 25.7812 44.0312 22.75
Q46.1406 19.7344 46.1406 15.2344
Q46.1406 10.8438 43.5781 6.95312
Q41.0156 3.07812 36.1719 0.953125
Q31.3438 -1.17188 25.25 -1.17188
Q15.1406 -1.17188 9.84375 3.03125
Q4.54688 7.23438 3.07812 15.4844" id="ArialMT-73"/>
      </defs>
      <g transform="translate(29.955610625 311.284122187)scale(0.09996 -0.09996)">
       <use xlink:href="#ArialMT-43"/>
       <use x="72.216796875" xlink:href="#ArialMT-6f"/>
       <use x="127.83203125" xlink:href="#ArialMT-6d"/>
       <use x="211.1328125" xlink:href="#ArialMT-6d"/>
       <use x="294.43359375" xlink:href="#ArialMT-73"/>
      </g>
     </g>
    </g>
    <g id="ytick_2">
     <g id="line2d_24">
      <g>
       <use style="stroke:#000000;stroke-width:0.5;" x="67.5" xlink:href="#m728421d6d4" y="132.3"/>
      </g>
     </g>
     <g id="line2d_25">
      <g>
       <use style="stroke:#000000;stroke-width:0.5;" x="546.75" xlink:href="#mcb0005524f" y="132.3"/>
      </g>
     </g>
     <g id="text_11">
      <!-- Exec -->
      <defs>
       <path d="
M40.4375 19
L49.0781 17.875
Q47.6562 8.9375 41.8125 3.875
Q35.9844 -1.17188 27.4844 -1.17188
Q16.8438 -1.17188 10.375 5.78125
Q3.90625 12.75 3.90625 25.7344
Q3.90625 34.125 6.6875 40.4219
Q9.46875 46.7344 15.1562 49.875
Q20.8438 53.0312 27.5469 53.0312
Q35.9844 53.0312 41.3594 48.75
Q46.7344 44.4844 48.25 36.625
L39.7031 35.2969
Q38.4844 40.5312 35.375 43.1562
Q32.2812 45.7969 27.875 45.7969
Q21.2344 45.7969 17.0781 41.0312
Q12.9375 36.2812 12.9375 25.9844
Q12.9375 15.5312 16.9375 10.7969
Q20.9531 6.0625 27.3906 6.0625
Q32.5625 6.0625 36.0312 9.23438
Q39.5 12.4062 40.4375 19" id="ArialMT-63"/>
       <path d="
M0.734375 0
L19.6719 26.9531
L2.15625 51.8594
L13.1406 51.8594
L21.0938 39.7031
Q23.3438 36.2344 24.7031 33.8906
Q26.8594 37.1094 28.6562 39.5938
L37.4062 51.8594
L47.9062 51.8594
L29.9844 27.4375
L49.2656 0
L38.4844 0
L27.8281 16.1094
L25 20.4531
L11.375 0
z
" id="ArialMT-78"/>
       <path d="
M7.90625 0
L7.90625 71.5781
L59.6719 71.5781
L59.6719 63.1406
L17.3906 63.1406
L17.3906 41.2188
L56.9844 41.2188
L56.9844 32.8125
L17.3906 32.8125
L17.3906 8.45312
L61.3281 8.45312
L61.3281 0
z
" id="ArialMT-45"/>
      </defs>
      <g transform="translate(42.160101875 134.884122187)scale(0.09996 -0.09996)">
       <use xlink:href="#ArialMT-45"/>
       <use x="66.69921875" xlink:href="#ArialMT-78"/>
       <use x="116.69921875" xlink:href="#ArialMT-65"/>
       <use x="172.314453125" xlink:href="#ArialMT-63"/>
      </g>
     </g>
    </g>
    <g id="text_12">
     <!-- Queues -->
     <defs>
      <path d="
M40.5781 0
L40.5781 7.625
Q34.5156 -1.17188 24.125 -1.17188
Q19.5312 -1.17188 15.5469 0.578125
Q11.5781 2.34375 9.64062 5
Q7.71875 7.67188 6.9375 11.5312
Q6.39062 14.1094 6.39062 19.7344
L6.39062 51.8594
L15.1875 51.8594
L15.1875 23.0938
Q15.1875 16.2188 15.7188 13.8125
Q16.5469 10.3594 19.2344 8.375
Q21.9219 6.39062 25.875 6.39062
Q29.8281 6.39062 33.2969 8.42188
Q36.7656 10.4531 38.2031 13.9375
Q39.6562 17.4375 39.6562 24.0781
L39.6562 51.8594
L48.4375 51.8594
L48.4375 0
z
" id="ArialMT-75"/>
      <path d="
M61.9688 7.67188
Q68.5625 3.125 74.125 1.03125
L71.3438 -5.5625
Q63.625 -2.78125 55.9531 3.21875
Q48 -1.21875 38.375 -1.21875
Q28.6562 -1.21875 20.75 3.46875
Q12.8438 8.15625 8.5625 16.6406
Q4.29688 25.1406 4.29688 35.7969
Q4.29688 46.3906 8.59375 55.0781
Q12.8906 63.7656 20.8281 68.3125
Q28.7656 72.8594 38.5781 72.8594
Q48.4844 72.8594 56.4375 68.1406
Q64.4062 63.4219 68.5781 54.9531
Q72.75 46.4844 72.75 35.8438
Q72.75 27 70.0625 19.9375
Q67.3906 12.8906 61.9688 7.67188
M41.1094 19.7812
Q49.3125 17.4844 54.6406 12.9375
Q62.9844 20.5625 62.9844 35.8438
Q62.9844 44.5312 60.0312 51.0156
Q57.0781 57.5156 51.3906 61.1094
Q45.7031 64.7031 38.625 64.7031
Q28.0312 64.7031 21.0469 57.4531
Q14.0625 50.2031 14.0625 35.7969
Q14.0625 21.8281 20.9688 14.3594
Q27.875 6.89062 38.625 6.89062
Q43.7031 6.89062 48.1875 8.79688
Q43.75 11.6719 38.8125 12.8906
z
" id="ArialMT-51"/>
     </defs>
     <g transform="translate(22.570610625 241.02375)rotate(-90.0)scale(0.12 -0.12)">
      <use xlink:href="#ArialMT-51"/>
      <use x="77.783203125" xlink:href="#ArialMT-75"/>
      <use x="133.3984375" xlink:href="#ArialMT-65"/>
      <use x="189.013671875" xlink:href="#ArialMT-75"/>
      <use x="244.62890625" xlink:href="#ArialMT-65"/>
      <use x="300.244140625" xlink:href="#ArialMT-73"/>
     </g>
    </g>
   </g>
   <g id="patch_133">
    <path d="
M67.5 44.1
L546.75 44.1" style="fill:none;stroke:#000000;"/>
   </g>
   <g id="patch_134">
    <path d="
M546.75 396.9
L546.75 44.1" style="fill:none;stroke:#000000;"/>
   </g>
   <g id="patch_135">
    <path d="
M67.5 396.9
L546.75 396.9" style="fill:none;stroke:#000000;"/>
   </g>
   <g id="patch_136">
    <path d="
M67.5 396.9
L67.5 44.1" style="fill:none;stroke:#000000;"/>
   </g>
   <g id="legend_1">
    <g id="patch_137">
     <path d="
M556.335 82.2435
L664.985 82.2435
L664.985 44.1
L556.335 44.1
L556.335 82.2435
z
" style="fill:#ffffff;stroke:#000000;"/>
    </g>
    <g id="patch_138">
     <path d="
M559.666 53.4937
L576.322 53.4937
L576.322 47.6641
L559.666 47.6641
z
" style="stroke:#000000;"/>
    </g>
    <g id="text_13">
     <!-- NDRANGE_KERNEL -->
     <defs>
      <path d="
M7.85938 0
L7.85938 71.5781
L39.5938 71.5781
Q49.1719 71.5781 54.1406 69.6406
Q59.125 67.7188 62.1094 62.8281
Q65.0938 57.9531 65.0938 52.0469
Q65.0938 44.4375 60.1562 39.2031
Q55.2188 33.9844 44.9219 32.5625
Q48.6875 30.7656 50.6406 29
Q54.7812 25.2031 58.5 19.4844
L70.9531 0
L59.0312 0
L49.5625 14.8906
Q45.4062 21.3438 42.7188 24.75
Q40.0469 28.1719 37.9219 29.5312
Q35.7969 30.9062 33.5938 31.4531
Q31.9844 31.7812 28.3281 31.7812
L17.3281 31.7812
L17.3281 0
z

M17.3281 39.9844
L37.7031 39.9844
Q44.1875 39.9844 47.8438 41.3281
Q51.5156 42.6719 53.4219 45.625
Q55.3281 48.5781 55.3281 52.0469
Q55.3281 57.125 51.6406 60.3906
Q47.9531 63.6719 39.9844 63.6719
L17.3281 63.6719
z
" id="ArialMT-52"/>
      <path d="
M7.625 0
L7.625 71.5781
L17.3281 71.5781
L54.9375 15.375
L54.9375 71.5781
L64.0156 71.5781
L64.0156 0
L54.2969 0
L16.7031 56.25
L16.7031 0
z
" id="ArialMT-4e"/>
      <path d="
M7.71875 0
L7.71875 71.5781
L32.375 71.5781
Q40.7188 71.5781 45.125 70.5625
Q51.2656 69.1406 55.6094 65.4375
Q61.2812 60.6406 64.0781 53.1875
Q66.8906 45.75 66.8906 36.1875
Q66.8906 28.0312 64.9844 21.7344
Q63.0938 15.4375 60.1094 11.2969
Q57.125 7.17188 53.5781 4.79688
Q50.0469 2.4375 45.0469 1.21875
Q40.0469 0 33.5469 0
z

M17.1875 8.45312
L32.4688 8.45312
Q39.5469 8.45312 43.5781 9.76562
Q47.6094 11.0781 50 13.4844
Q53.375 16.8438 55.25 22.5312
Q57.125 28.2188 57.125 36.3281
Q57.125 47.5625 53.4375 53.5938
Q49.75 59.625 44.4844 61.6719
Q40.6719 63.1406 32.2344 63.1406
L17.1875 63.1406
z
" id="ArialMT-44"/>
      <path d="
M41.2188 28.0781
L41.2188 36.4688
L71.5312 36.5312
L71.5312 9.96875
Q64.5469 4.39062 57.125 1.57812
Q49.7031 -1.21875 41.8906 -1.21875
Q31.3438 -1.21875 22.7188 3.29688
Q14.1094 7.8125 9.71875 16.3594
Q5.32812 24.9062 5.32812 35.4531
Q5.32812 45.9062 9.6875 54.9531
Q14.0625 64.0156 22.2656 68.4062
Q30.4688 72.7969 41.1562 72.7969
Q48.9219 72.7969 55.1875 70.2812
Q61.4688 67.7812 65.0312 63.2812
Q68.6094 58.7969 70.4531 51.5625
L61.9219 49.2188
Q60.2969 54.6875 57.9062 57.8125
Q55.5156 60.9375 51.0625 62.8125
Q46.625 64.7031 41.2188 64.7031
Q34.7188 64.7031 29.9844 62.7188
Q25.25 60.75 22.3438 57.5156
Q19.4375 54.2969 17.8281 50.4375
Q15.0938 43.7969 15.0938 36.0312
Q15.0938 26.4688 18.3906 20.0156
Q21.6875 13.5781 27.9844 10.4531
Q34.2812 7.32812 41.3594 7.32812
Q47.5156 7.32812 53.375 9.6875
Q59.2344 12.0625 62.25 14.75
L62.25 28.0781
z
" id="ArialMT-47"/>
      <path d="
M-0.140625 0
L27.3438 71.5781
L37.5469 71.5781
L66.8438 0
L56.0625 0
L47.7031 21.6875
L17.7812 21.6875
L9.90625 0
z

M20.5156 29.3906
L44.7812 29.3906
L37.3125 49.2188
Q33.8906 58.25 32.2344 64.0625
Q30.8594 57.1719 28.375 50.3906
z
" id="ArialMT-41"/>
      <path d="
M7.32812 0
L7.32812 71.5781
L16.7969 71.5781
L16.7969 8.45312
L52.0469 8.45312
L52.0469 0
z
" id="ArialMT-4c"/>
      <path d="
M7.32812 0
L7.32812 71.5781
L16.7969 71.5781
L16.7969 36.0781
L52.3438 71.5781
L65.1875 71.5781
L35.1562 42.5781
L66.5 0
L54 0
L28.5156 36.2344
L16.7969 24.8125
L16.7969 0
z
" id="ArialMT-4b"/>
      <path d="
M-1.51562 -19.875
L-1.51562 -13.5312
L56.7344 -13.5312
L56.7344 -19.875
z
" id="ArialMT-5f"/>
     </defs>
     <g transform="translate(582.9846 53.49372375)scale(0.08328 -0.08328)">
      <use xlink:href="#ArialMT-4e"/>
      <use x="72.216796875" xlink:href="#ArialMT-44"/>
      <use x="144.43359375" xlink:href="#ArialMT-52"/>
      <use x="216.650390625" xlink:href="#ArialMT-41"/>
      <use x="283.349609375" xlink:href="#ArialMT-4e"/>
      <use x="355.56640625" xlink:href="#ArialMT-47"/>
      <use x="433.349609375" xlink:href="#ArialMT-45"/>
      <use x="500.048828125" xlink:href="#ArialMT-5f"/>
      <use x="555.6640625" xlink:href="#ArialMT-4b"/>
      <use x="622.36328125" xlink:href="#ArialMT-45"/>
      <use x="689.0625" xlink:href="#ArialMT-52"/>
      <use x="761.279296875" xlink:href="#ArialMT-4e"/>
      <use x="833.49609375" xlink:href="#ArialMT-45"/>
      <use x="900.1953125" xlink:href="#ArialMT-4c"/>
     </g>
    </g>
    <g id="patch_139">
     <path d="
M559.666 65.3754
L576.322 65.3754
L576.322 59.5458
L559.666 59.5458
z
" style="fill:#00a4bb;stroke:#000000;"/>
    </g>
    <g id="text_14">
     <!-- READ_IMAGE -->
     <defs>
      <path d="
M9.32812 0
L9.32812 71.5781
L18.7969 71.5781
L18.7969 0
z
" id="ArialMT-49"/>
      <path d="
M7.42188 0
L7.42188 71.5781
L21.6875 71.5781
L38.625 20.9062
Q40.9688 13.8125 42.0469 10.2969
Q43.2656 14.2031 45.8438 21.7812
L62.9844 71.5781
L75.7344 71.5781
L75.7344 0
L66.6094 0
L66.6094 59.9062
L45.7969 0
L37.25 0
L16.5469 60.9375
L16.5469 0
z
" id="ArialMT-4d"/>
     </defs>
     <g transform="translate(582.9846 65.3754375)scale(0.08328 -0.08328)">
      <use xlink:href="#ArialMT-52"/>
      <use x="72.216796875" xlink:href="#ArialMT-45"/>
      <use x="138.916015625" xlink:href="#ArialMT-41"/>
      <use x="205.615234375" xlink:href="#ArialMT-44"/>
      <use x="277.83203125" xlink:href="#ArialMT-5f"/>
      <use x="333.447265625" xlink:href="#ArialMT-49"/>
      <use x="361.23046875" xlink:href="#ArialMT-4d"/>
      <use x="444.53125" xlink:href="#ArialMT-41"/>
      <use x="511.23046875" xlink:href="#ArialMT-47"/>
      <use x="589.013671875" xlink:href="#ArialMT-45"/>
     </g>
    </g>
    <g id="patch_140">
     <path d="
M559.666 77.2572
L576.322 77.2572
L576.322 71.4276
L559.666 71.4276
z
" style="fill:#ccf900;stroke:#000000;"/>
    </g>
    <g id="text_15">
     <!-- WRITE_IMAGE -->
     <defs>
      <path d="
M20.2188 0
L1.21875 71.5781
L10.9375 71.5781
L21.8281 24.6562
Q23.5781 17.2812 24.8594 10.0156
Q27.5938 21.4844 28.0781 23.25
L41.7031 71.5781
L53.125 71.5781
L63.375 35.3594
Q67.2344 21.875 68.9531 10.0156
Q70.3125 16.7969 72.5156 25.5938
L83.7344 71.5781
L93.2656 71.5781
L73.6406 0
L64.5 0
L49.4219 54.5469
Q47.5156 61.375 47.1719 62.9375
Q46.0469 58.0156 45.0625 54.5469
L29.8906 0
z
" id="ArialMT-57"/>
     </defs>
     <g transform="translate(582.9846 77.25715125)scale(0.08328 -0.08328)">
      <use xlink:href="#ArialMT-57"/>
      <use x="94.384765625" xlink:href="#ArialMT-52"/>
      <use x="166.6015625" xlink:href="#ArialMT-49"/>
      <use x="194.384765625" xlink:href="#ArialMT-54"/>
      <use x="255.46875" xlink:href="#ArialMT-45"/>
      <use x="322.16796875" xlink:href="#ArialMT-5f"/>
      <use x="377.783203125" xlink:href="#ArialMT-49"/>
      <use x="405.56640625" xlink:href="#ArialMT-4d"/>
      <use x="488.8671875" xlink:href="#ArialMT-41"/>
      <use x="555.56640625" xlink:href="#ArialMT-47"/>
      <use x="633.349609375" xlink:href="#ArialMT-45"/>
     </g>
    </g>
   </g>
  </g>
 </g>
 <defs>
  <clipPath id="p2ca853bb75">
   <rect height="352.8" width="479.25" x="67.5" y="44.1"/>
  </clipPath>
 </defs>
</svg>
